<svg xmlns="http://www.w3.org/2000/svg" id="CIRCLE_OUTLINE_BLACK" viewBox="0 0 512 512"><circle cx="256" cy="256" r="255.99999" fill="#fdde00"/><path d="m131.38959,180.995s-13.237,16.66882-8.82467,92.16875c0,0-28.9253,74.02915-19.12011,111.77912s48.04541,35.78893,48.04541,35.78893c0,0,61.28241,53.92852,108.3473,6.37337,47.06489-47.55515-39.22074-231.89264-39.22074-231.89264l-10.7857-63.73371s-11.76622,9.31493-10.29545,70.59734c1.47078,61.28241-24.02271,18.13959-24.02271,18.13959l-44.12334-39.22074Z" fill="#3c2d0c"/><path d="m136.29219,247.67027l-16.17856,45.59411-5.88311,31.86685s-20.10063,71.0876,62.75319,70.10708c0,0,64.71423,57.8506,106.87653,19.12011l11.27596-12.25648,19.61037-30.39608,32.35711-96.58108s-10.29545-66.185-75.49993-93.63952c0,0-5.39285-2.94156-15.19804.98052,0,0-26.96426-60.79215-44.12334-53.43826,0,0-14.70778,7.84415-1.96104,67.65578l-23.04219,10.29545s-25.20351-47.7852-48.53567-38.24022c-21.57141,8.82467-2.4513,78.93175-2.4513,78.93175Z" fill="#e78c19"/><path d="m220.12652,158.93334l1.96104,26.474s1.47078,15.19804,17.64937,9.80517c4.57253-1.52419,8.58869-4.70871,8.16586-9.93588-.31661-3.91404-3.04984-7.45769-4.82791-10.83438-3.32906-6.32212-5.99567-13.03075-9.86694-19.05272-1.98122-3.09198-6.05921-10.00957-10.63012-9.20294,0,0-3.37053-.98052-2.4513,12.74674Z" fill="#efb99d"/><path d="m149.2535,188.65525c.30914-.20238,6.89548-8.54693,20.5908,11.67436,13.69662,20.2232,12.31776,17.55741,12.31776,17.55741,0,0,7.35388,8.08927-7.72159,18.47665-3.34936,2.30779-6.81851,4.57013-10.66621,5.95937-2.33195.84194-4.91964,1.53939-7.41838,1.42042-2.8616-.13625-4.15006-1.59795-4.85701-4.29096-2.3167-8.82509-4.92653-17.60208-6.24897-26.64485-.99689-6.81672-2.98856-19.57488,4.00359-24.1524Z" fill="#efb99d"/><path d="m308.47437,229.40138c0,4.80604-7.02592,8.7021-15.69284,8.7021s-15.69284-3.89606-15.69284-8.7021,7.17442-11.88206,15.84134-11.88206,15.54434,7.07602,15.54434,11.88206Z" fill="#fbfbfb"/><ellipse cx="208.43967" cy="261.53786" rx="17.1433" ry="10.95428" transform="translate(-121.83855 314.12531) rotate(-60.49275)" fill="#fbfbfb"/><path d="m240.22716,306.74651l42.89769-22.3068s53.43826-27.94478,66.43013-6.37337c12.99187,21.57141,0,54.41878,0,54.41878,0,0-5.63798,38.48535-44.85873,41.91717l-21.08115,2.94156-26.96426.73539s-43.38795,2.4513-75.2548-21.08115l-10.05032-12.25648s-20.34576-27.94478-6.12824-48.04541c14.21752-20.10063,62.75319,11.03083,62.75319,11.03083,0,0,6.6185,3.43182,12.25648-.98052Z" fill="#fbfbfb"/><circle cx="337.54363" cy="185.16221" r="10.29545" fill="#e72d36"/><circle cx="314.74657" cy="159.91386" r="10.29545" fill="#e72d36"/><circle cx="278.22225" cy="151.82458" r="10.29545" fill="#e72d36"/><path d="m286.31153,78.77594c2.20617,30.39608-2.18177,57.8506-9.56006,57.8506s-17.15908-29.66069-17.15908-57.8506c0-11.6428,6.10385-13.48213,13.48213-13.48213s12.39418,1.86988,13.237,13.48213Z" fill="#e72d36"/><path d="m354.51511,97.74653c-11.21011,28.33708-27.08358,51.16197-33.73058,47.95898-6.647-3.203-2.58008-34.16591,9.65965-59.55805,5.05516-10.48729,11.35266-9.49432,17.99967-6.29133s10.35388,7.06475,6.07127,17.8904Z" fill="#e72d36"/><path d="m403.26341,152.86098c-24.67556,17.90384-50.326,28.65182-54.21464,22.38059s16.16969-30.22538,40.13262-45.0907c9.897-6.13957,14.6775-1.9215,18.56614,4.34973s4.94271,11.52056-4.48413,18.36038Z" fill="#e72d36"/><path d="m238.1967,276.83744c-.92483.07189-1.82335.18831-2.69206.33904.10366.31493.1708.63634.1708.96611,0,3.13789-4.87857,5.69464-11.01997,5.86671-.04082.26437-.0596.53013-.03884.79775.29475,3.79604,6.85265,6.38293,14.64741,5.77766,7.79488-.60527,13.87482-4.17335,13.58007-7.96962-.29475-3.79604-6.85253-6.38293-14.64741-5.77766Z"/><path d="m292.43164,263.41659c-.92483.07189-1.82335.18831-2.69206.33904.10366.31493.1708.63634.1708.96611,0,3.13789-4.87857,5.69464-11.01997,5.86671-.04082.26437-.0596.53013-.03884.79775.29475,3.79604,6.85265,6.38293,14.64741,5.77766,7.79488-.60527,13.87482-4.17335,13.58007-7.96962-.29475-3.79604-6.85253-6.38293-14.64741-5.77766Z"/><path d="m310.21167,279.29199s-21.51013,6.25081-20.2232,18.38472c1.28693,12.13392,27.20939,18.38472,27.20939,18.38472,0,0,6.98619,2.75771,11.03083-3.86079,4.04464-6.6185,9.92775-15.62701,8.27313-28.49632,0,0-.55154-9.56006-26.29015-4.41233Z"/></svg>